<svg xmlns="http://www.w3.org/2000/svg" version="1.1" xmlns:xlink="http://www.w3.org/1999/xlink" viewBox="0 0 19.785394512071292 8.174510082824547"><g transform="matrix(0.7781911012813999,0,0,0.7781911012813999,6.311168512574957,3.003131863797768)"><g transform="matrix(1,0,0,1,0,0)" clip-path="url(#SvgjsClipPath34167)"><g clip-path="url(#SvgjsClipPath341650be31aab-1a56-42da-aaaa-a87f83a932bb)"><path d=" M -2.2626879949364804 -1.529126692406197 C -2.7629929119947336 -1.529126692406197 -3.168567370877803 -1.2521666505657727 -3.168567370877803 -0.5064096412237247 C -3.1682819492338377 -0.4704565064403432 -3.166109560912881 -0.43454313443596004 -3.162059171461186 -0.3988177413442682 C -2.9303466112791376 -0.6231956640885511 -2.6129944111546375 -0.7190624745428269 -2.2626879949364795 -0.7190624745428269 C -1.9123815787183216 -0.7190624745428269 -1.5950293785938214 -0.6230407069595828 -1.3633168184117723 -0.39881774134427617 C -1.3592407253335996 -0.43454089685648056 -1.357068254712054 -0.4704556294333051 -1.3568086189951565 -0.506409641223726 C -1.3568086189951565 -1.2523216076947383 -1.762383077878226 -1.529126692406197 -2.2626879949364804 -1.529126692406197 Z" fill="#102036" transform="matrix(1,0,0,1,0,0)" fill-rule="nonzero"></path></g><g clip-path="url(#SvgjsClipPath341650be31aab-1a56-42da-aaaa-a87f83a932bb)"><path d=" M -2.239341120838779 -1.5280419925034274 C -1.760678549459589 -1.511100013069697 -1.3801038407165351 -1.228458209833814 -1.3801038407165351 -0.5059447698368227 C -1.4478201060751323 1.0719836744345588 -3.5760013153084778 2.1504336396688433 -4.125324337496638 3.729550088595638 L -3.5906705901840237 4.315391340843698 C -2.957050889837792 2.883587469188237 -0.8725675909731536 1.7846831629303028 -0.8957078555655653 0.04079563353522042 C -0.8957078555655653 -1.0807324135519014 -1.4931708924861535 -1.5112033178223419 -2.239341120838779 -1.5283002543850408 Z" fill="#3682ae" transform="matrix(1,0,0,1,0,0)" fill-rule="nonzero"></path></g><g clip-path="url(#SvgjsClipPath341650be31aab-1a56-42da-aaaa-a87f83a932bb)"><path d=" M -2.186862306495275 1.1752367747029298 C -2.419297999945836 1.4529716021881898 -2.6794710194814986 1.7261610205570834 -2.934478801384926 2.003482629031765 C -2.842950790541727 2.117117856940929 -2.7475488514743525 2.226775851873271 -2.650080817354083 2.33106199966809 C -2.5478607646121585 2.4443873133193197 -2.4434713120646947 2.557144450831003 -2.3391851642698755 2.6700565454716543 C -2.0824728539478112 2.39288989412594 -1.8256572388731014 2.1130373192114633 -1.601176011376181 1.8212013929902025 C -1.7882609184157219 1.6116993546267624 -1.99244276201796 1.3985299975444359 -2.186862306495275 1.1752367747029298 Z" fill="#102036" transform="matrix(1,0,0,1,0,0)" fill-rule="nonzero"></path></g><g clip-path="url(#SvgjsClipPath341650be31aab-1a56-42da-aaaa-a87f83a932bb)"><path d=" M -2.2859832166578586 -1.5280419925034274 C -3.0322050973868064 -1.5109450559407314 -3.6296164819310732 -1.0804741516702894 -3.6296164819310732 0.0410538954168338 C -3.652808398899807 1.7846831629303028 -1.5682734476588465 2.883587469188237 -0.9345504425599693 4.315391340843698 L -0.39989669524735527 3.729343479090348 C -0.9492197174355166 2.1501753777872303 -3.077400926668861 1.0717254125529463 -3.1451171920274588 -0.5061513793421126 C -3.1451171920274588 -1.2288197764680708 -2.7645424832844054 -1.511306622574987 -2.285879911905214 -1.5283002543850408 Z" fill="#a5b2ba" transform="matrix(1,0,0,1,0,0)" fill-rule="nonzero"></path></g></g><g><path d=" M 0.629150390625 1.401123046875 Q 0.533203125 1.401123046875 0.45263671875 1.3795166015625 Q 0.3720703125 1.35791015625 0.3065185546875 1.319091796875 Q 0.240966796875 1.2802734375 0.191162109375 1.226806640625 Q 0.141357421875 1.17333984375 0.107666015625 1.109619140625 Q 0.073974609375 1.0458984375 0.0567626953125 0.9744873046875 Q 0.03955078125 0.903076171875 0.03955078125 0.82763671875 Q 0.03955078125 0.7412109375 0.05419921875 0.6610107421875 Q 0.06884765625 0.580810546875 0.10107421875 0.510498046875 Q 0.13330078125 0.440185546875 0.1845703125 0.38232421875 Q 0.23583984375 0.324462890625 0.30908203125 0.2830810546875 Q 0.38232421875 0.24169921875 0.4786376953125 0.218994140625 Q 0.574951171875 0.1962890625 0.697998046875 0.1962890625 Q 0.779296875 0.1962890625 0.8525390625 0.21826171875 Q 0.92578125 0.240234375 0.9810791015625 0.2808837890625 Q 1.036376953125 0.321533203125 1.0689697265625 0.3797607421875 Q 1.1015625 0.43798828125 1.1015625 0.509765625 Q 1.1015625 0.5390625 1.0924072265625 0.5625 Q 1.083251953125 0.5859375 1.0667724609375 0.60205078125 Q 1.05029296875 0.6181640625 1.0279541015625 0.626953125 Q 1.005615234375 0.6357421875 0.97998046875 0.6357421875 Q 0.957275390625 0.6357421875 0.9345703125 0.62841796875 Q 0.911865234375 0.62109375 0.891357421875 0.6038818359375 Q 0.870849609375 0.586669921875 0.8543701171875 0.5592041015625 Q 0.837890625 0.53173828125 0.828369140625 0.491455078125 Q 0.815185546875 0.434326171875 0.78369140625 0.4046630859375 Q 0.752197265625 0.375 0.71630859375 0.375 Q 0.689208984375 0.375 0.6624755859375 0.391845703125 Q 0.6357421875 0.40869140625 0.6148681640625 0.4434814453125 Q 0.593994140625 0.478271484375 0.580810546875 0.53173828125 Q 0.567626953125 0.585205078125 0.567626953125 0.658447265625 Q 0.567626953125 0.755126953125 0.57861328125 0.8265380859375 Q 0.589599609375 0.89794921875 0.6090087890625 0.948486328125 Q 0.62841796875 0.9990234375 0.6544189453125 1.03125 Q 0.680419921875 1.0634765625 0.71044921875 1.081787109375 Q 0.740478515625 1.10009765625 0.772705078125 1.1070556640625 Q 0.804931640625 1.114013671875 0.837158203125 1.114013671875 Q 0.8701171875 1.114013671875 0.901611328125 1.1063232421875 Q 0.93310546875 1.0986328125 0.9591064453125 1.0872802734375 Q 0.985107421875 1.075927734375 1.0037841796875 1.0631103515625 Q 1.0224609375 1.05029296875 1.03125 1.039306640625 Q 1.042236328125 1.024658203125 1.0550537109375 1.0177001953125 Q 1.06787109375 1.0107421875 1.078857421875 1.0107421875 Q 1.099365234375 1.0107421875 1.114013671875 1.031982421875 Q 1.128662109375 1.05322265625 1.128662109375 1.090576171875 Q 1.128662109375 1.149169921875 1.0924072265625 1.204833984375 Q 1.05615234375 1.260498046875 0.990234375 1.3040771484375 Q 0.92431640625 1.34765625 0.8323974609375 1.3743896484375 Q 0.740478515625 1.401123046875 0.629150390625 1.401123046875 M 1.720458984375 1.100830078125 Q 1.720458984375 1.130859375 1.728515625 1.147705078125 Q 1.736572265625 1.16455078125 1.7486572265625 1.1729736328125 Q 1.7607421875 1.181396484375 1.774658203125 1.1846923828125 Q 1.78857421875 1.18798828125 1.8006591796875 1.191650390625 Q 1.812744140625 1.1953125 1.82080078125 1.2022705078125 Q 1.828857421875 1.209228515625 1.828857421875 1.225341796875 Q 1.828857421875 1.308837890625 1.742431640625 1.3458251953125 Q 1.656005859375 1.3828125 1.49267578125 1.3828125 Q 1.41357421875 1.3828125 1.352783203125 1.3740234375 Q 1.2919921875 1.365234375 1.250244140625 1.3458251953125 Q 1.20849609375 1.326416015625 1.1868896484375 1.2967529296875 Q 1.165283203125 1.26708984375 1.165283203125 1.225341796875 Q 1.165283203125 1.209228515625 1.17333984375 1.2022705078125 Q 1.181396484375 1.1953125 1.193115234375 1.191650390625 Q 1.204833984375 1.18798828125 1.21875 1.18505859375 Q 1.232666015625 1.18212890625 1.244384765625 1.1737060546875 Q 1.256103515625 1.165283203125 1.26416015625 1.1495361328125 Q 1.272216796875 1.1337890625 1.272216796875 1.103759765625 L 1.272216796875 0.712646484375 Q 1.272216796875 0.683349609375 1.26416015625 0.667236328125 Q 1.256103515625 0.651123046875 1.244384765625 0.6427001953125 Q 1.232666015625 0.63427734375 1.21875 0.63134765625 Q 1.204833984375 0.62841796875 1.193115234375 0.624755859375 Q 1.181396484375 0.62109375 1.17333984375 0.6141357421875 Q 1.165283203125 0.607177734375 1.165283203125 0.591064453125 Q 1.165283203125 0.54931640625 1.1868896484375 0.5196533203125 Q 1.20849609375 0.489990234375 1.250244140625 0.4705810546875 Q 1.2919921875 0.451171875 1.352783203125 0.4423828125 Q 1.41357421875 0.43359375 1.49267578125 0.43359375 Q 1.565185546875 0.43359375 1.6087646484375 0.4478759765625 Q 1.65234375 0.462158203125 1.67724609375 0.489990234375 Q 1.69775390625 0.476806640625 1.7197265625 0.4647216796875 Q 1.74169921875 0.45263671875 1.7666015625 0.4434814453125 Q 1.79150390625 0.434326171875 1.82080078125 0.42919921875 Q 1.85009765625 0.424072265625 1.88525390625 0.424072265625 Q 1.92919921875 0.424072265625 1.9698486328125 0.4332275390625 Q 2.010498046875 0.4423828125 2.0419921875 0.4632568359375 Q 2.073486328125 0.484130859375 2.0921630859375 0.5174560546875 Q 2.11083984375 0.55078125 2.11083984375 0.599853515625 Q 2.11083984375 0.632080078125 2.099853515625 0.662841796875 Q 2.0888671875 0.693603515625 2.0672607421875 0.7174072265625 Q 2.045654296875 0.7412109375 2.0130615234375 0.755859375 Q 1.98046875 0.7705078125 1.93798828125 0.7705078125 Q 1.8955078125 0.7705078125 1.871337890625 0.758056640625 Q 1.84716796875 0.74560546875 1.833984375 0.727294921875 Q 1.82080078125 0.708984375 1.8145751953125 0.6873779296875 Q 1.808349609375 0.665771484375 1.8013916015625 0.6474609375 Q 1.79443359375 0.629150390625 1.7830810546875 0.61669921875 Q 1.771728515625 0.604248046875 1.7490234375 0.604248046875 Q 1.726318359375 0.604248046875 1.718994140625 0.6097412109375 Q 1.711669921875 0.615234375 1.711669921875 0.62548828125 Q 1.711669921875 0.638671875 1.716796875 0.6591796875 Q 1.721923828125 0.6796875 1.721923828125 0.708984375 L 1.720458984375 1.100830078125 M 2.637451171875 1.232666015625 Q 2.66162109375 1.232666015625 2.6766357421875 1.2249755859375 Q 2.691650390625 1.21728515625 2.69970703125 1.2030029296875 Q 2.707763671875 1.188720703125 2.7103271484375 1.1678466796875 Q 2.712890625 1.14697265625 2.712890625 1.12060546875 Q 2.712890625 1.097900390625 2.712158203125 1.062744140625 Q 2.71142578125 1.027587890625 2.710693359375 0.993896484375 Q 2.709228515625 0.954345703125 2.70849609375 0.911865234375 Q 2.6982421875 0.910400390625 2.6890869140625 0.9093017578125 Q 2.679931640625 0.908203125 2.671142578125 0.908203125 Q 2.6337890625 0.908203125 2.6085205078125 0.9232177734375 Q 2.583251953125 0.938232421875 2.56787109375 0.9649658203125 Q 2.552490234375 0.99169921875 2.5462646484375 1.0279541015625 Q 2.5400390625 1.064208984375 2.5400390625 1.106689453125 Q 2.5400390625 1.13232421875 2.54296875 1.1553955078125 Q 2.5458984375 1.178466796875 2.55615234375 1.1956787109375 Q 2.56640625 1.212890625 2.5858154296875 1.2227783203125 Q 2.605224609375 1.232666015625 2.637451171875 1.232666015625 M 2.990478515625 1.3828125 Q 2.953125 1.3828125 2.9161376953125 1.3787841796875 Q 2.879150390625 1.374755859375 2.8458251953125 1.3623046875 Q 2.8125 1.349853515625 2.78466796875 1.326416015625 Q 2.7568359375 1.302978515625 2.737060546875 1.26416015625 Q 2.722412109375 1.298583984375 2.6898193359375 1.32421875 Q 2.6572265625 1.349853515625 2.6158447265625 1.3670654296875 Q 2.574462890625 1.38427734375 2.5286865234375 1.3927001953125 Q 2.48291015625 1.401123046875 2.441162109375 1.401123046875 Q 2.3671875 1.401123046875 2.3115234375 1.383544921875 Q 2.255859375 1.365966796875 2.2177734375 1.3333740234375 Q 2.1796875 1.30078125 2.16064453125 1.25537109375 Q 2.1416015625 1.2099609375 2.1416015625 1.153564453125 Q 2.1416015625 1.0869140625 2.1639404296875 1.0272216796875 Q 2.186279296875 0.967529296875 2.2401123046875 0.9228515625 Q 2.2939453125 0.878173828125 2.384033203125 0.8521728515625 Q 2.47412109375 0.826171875 2.609619140625 0.826171875 L 2.7099609375 0.826171875 Q 2.7099609375 0.744873046875 2.7044677734375 0.69140625 Q 2.698974609375 0.637939453125 2.687255859375 0.6064453125 Q 2.675537109375 0.574951171875 2.657958984375 0.5625 Q 2.640380859375 0.550048828125 2.615478515625 0.550048828125 Q 2.587646484375 0.550048828125 2.5689697265625 0.56689453125 Q 2.55029296875 0.583740234375 2.5389404296875 0.6156005859375 Q 2.527587890625 0.6474609375 2.5228271484375 0.6925048828125 Q 2.51806640625 0.737548828125 2.51806640625 0.794677734375 Q 2.486572265625 0.794677734375 2.4517822265625 0.7935791015625 Q 2.4169921875 0.79248046875 2.3829345703125 0.7880859375 Q 2.348876953125 0.78369140625 2.3184814453125 0.7745361328125 Q 2.2880859375 0.765380859375 2.2646484375 0.7496337890625 Q 2.2412109375 0.73388671875 2.227294921875 0.709716796875 Q 2.21337890625 0.685546875 2.21337890625 0.651123046875 Q 2.21337890625 0.602783203125 2.2386474609375 0.5595703125 Q 2.263916015625 0.516357421875 2.3162841796875 0.4837646484375 Q 2.36865234375 0.451171875 2.44921875 0.4317626953125 Q 2.52978515625 0.412353515625 2.64111328125 0.412353515625 Q 2.770751953125 0.412353515625 2.864501953125 0.438720703125 Q 2.958251953125 0.465087890625 3.0186767578125 0.517822265625 Q 3.0791015625 0.570556640625 3.1080322265625 0.6507568359375 Q 3.136962890625 0.73095703125 3.136962890625 0.838623046875 L 3.136962890625 1.097900390625 Q 3.136962890625 1.12939453125 3.1453857421875 1.14697265625 Q 3.15380859375 1.16455078125 3.1658935546875 1.1737060546875 Q 3.177978515625 1.182861328125 3.192626953125 1.1865234375 Q 3.207275390625 1.190185546875 3.2193603515625 1.1942138671875 Q 3.2314453125 1.1982421875 3.2398681640625 1.2052001953125 Q 3.248291015625 1.212158203125 3.248291015625 1.228271484375 Q 3.248291015625 1.301513671875 3.1827392578125 1.3421630859375 Q 3.1171875 1.3828125 2.990478515625 1.3828125 M 3.6826171875 0.580078125 Q 3.68408203125 0.57568359375 3.68408203125 0.57421875 Q 3.68408203125 0.568359375 3.6796875 0.5657958984375 Q 3.67529296875 0.563232421875 3.6708984375 0.563232421875 Q 3.66796875 0.563232421875 3.667236328125 0.56396484375 L 3.528076171875 0.56396484375 L 3.50537109375 0.659912109375 Q 3.495849609375 0.692138671875 3.4822998046875 0.7144775390625 Q 3.46875 0.73681640625 3.4522705078125 0.750732421875 Q 3.435791015625 0.7646484375 3.41748046875 0.7708740234375 Q 3.399169921875 0.777099609375 3.380859375 0.777099609375 Q 3.359619140625 0.777099609375 3.3416748046875 0.769775390625 Q 3.32373046875 0.762451171875 3.310546875 0.749267578125 Q 3.29736328125 0.736083984375 3.2896728515625 0.717041015625 Q 3.281982421875 0.697998046875 3.281982421875 0.674560546875 Q 3.281982421875 0.638671875 3.2926025390625 0.5965576171875 Q 3.30322265625 0.554443359375 3.324462890625 0.5181884765625 Q 3.345703125 0.48193359375 3.3779296875 0.457763671875 Q 3.41015625 0.43359375 3.4541015625 0.43359375 L 4.109619140625 0.43359375 Q 4.143310546875 0.43359375 4.156494140625 0.44677734375 Q 4.169677734375 0.4599609375 4.169677734375 0.48046875 Q 4.169677734375 0.4951171875 4.1641845703125 0.511962890625 Q 4.15869140625 0.52880859375 4.150634765625 0.545654296875 L 3.83056640625 1.18798828125 Q 3.821044921875 1.207763671875 3.821044921875 1.220947265625 Q 3.821044921875 1.23046875 3.8258056640625 1.2359619140625 Q 3.83056640625 1.241455078125 3.8382568359375 1.2440185546875 Q 3.845947265625 1.24658203125 3.85546875 1.247314453125 Q 3.864990234375 1.248046875 3.87451171875 1.248046875 Q 3.923583984375 1.248046875 3.948486328125 1.2322998046875 Q 3.973388671875 1.216552734375 3.98583984375 1.1927490234375 Q 3.998291015625 1.1689453125 4.0045166015625 1.1414794921875 Q 4.0107421875 1.114013671875 4.0213623046875 1.0902099609375 Q 4.031982421875 1.06640625 4.0535888671875 1.0506591796875 Q 4.0751953125 1.034912109375 4.119140625 1.034912109375 Q 4.16162109375 1.034912109375 4.1898193359375 1.0623779296875 Q 4.218017578125 1.08984375 4.218017578125 1.13818359375 Q 4.218017578125 1.17333984375 4.207763671875 1.2161865234375 Q 4.197509765625 1.259033203125 4.17626953125 1.2960205078125 Q 4.155029296875 1.3330078125 4.122802734375 1.35791015625 Q 4.090576171875 1.3828125 4.046630859375 1.3828125 L 3.37353515625 1.3828125 Q 3.36181640625 1.3828125 3.350830078125 1.3809814453125 Q 3.33984375 1.379150390625 3.3314208984375 1.3736572265625 Q 3.322998046875 1.3681640625 3.31787109375 1.359375 Q 3.312744140625 1.3505859375 3.312744140625 1.3359375 Q 3.312744140625 1.32275390625 3.31787109375 1.3040771484375 Q 3.322998046875 1.285400390625 3.33544921875 1.26123046875 L 3.6826171875 0.580078125 M 4.973876953125 0.914794921875 L 5.08154296875 0.685546875 Q 5.08740234375 0.673095703125 5.088134765625 0.667236328125 Q 5.0888671875 0.661376953125 5.0888671875 0.65478515625 L 5.0888671875 0.64453125 Q 5.0888671875 0.635009765625 5.0738525390625 0.62548828125 Q 5.058837890625 0.615966796875 5.0408935546875 0.605712890625 Q 5.02294921875 0.595458984375 5.0079345703125 0.583740234375 Q 4.992919921875 0.572021484375 4.992919921875 0.55810546875 Q 4.992919921875 0.519287109375 5.021484375 0.4947509765625 Q 5.050048828125 0.47021484375 5.0928955078125 0.4566650390625 Q 5.1357421875 0.443115234375 5.184814453125 0.4383544921875 Q 5.23388671875 0.43359375 5.27490234375 0.43359375 Q 5.3701171875 0.43359375 5.4217529296875 0.4625244140625 Q 5.473388671875 0.491455078125 5.473388671875 0.55810546875 Q 5.473388671875 0.574951171875 5.4635009765625 0.5841064453125 Q 5.45361328125 0.59326171875 5.4375 0.59912109375 Q 5.42138671875 0.60498046875 5.4012451171875 0.6097412109375 Q 5.381103515625 0.614501953125 5.361328125 0.623291015625 Q 5.341552734375 0.632080078125 5.323974609375 0.6463623046875 Q 5.306396484375 0.66064453125 5.294677734375 0.685546875 L 4.929931640625 1.475830078125 Q 4.88671875 1.569580078125 4.8431396484375 1.6343994140625 Q 4.799560546875 1.69921875 4.7559814453125 1.7398681640625 Q 4.71240234375 1.780517578125 4.6695556640625 1.7984619140625 Q 4.626708984375 1.81640625 4.5849609375 1.81640625 Q 4.53369140625 1.81640625 4.489013671875 1.7933349609375 Q 4.4443359375 1.770263671875 4.411376953125 1.7332763671875 Q 4.37841796875 1.6962890625 4.359375 1.65087890625 Q 4.34033203125 1.60546875 4.34033203125 1.56005859375 Q 4.34033203125 1.502197265625 4.3531494140625 1.4630126953125 Q 4.365966796875 1.423828125 4.386474609375 1.4000244140625 Q 4.406982421875 1.376220703125 4.4329833984375 1.365966796875 Q 4.458984375 1.355712890625 4.486083984375 1.355712890625 Q 4.51904296875 1.355712890625 4.541748046875 1.3714599609375 Q 4.564453125 1.38720703125 4.5791015625 1.4102783203125 Q 4.59375 1.433349609375 4.6029052734375 1.4608154296875 Q 4.612060546875 1.48828125 4.619384765625 1.5113525390625 Q 4.626708984375 1.534423828125 4.63330078125 1.5501708984375 Q 4.639892578125 1.56591796875 4.6494140625 1.56591796875 Q 4.656005859375 1.56591796875 4.6658935546875 1.5560302734375 Q 4.67578125 1.546142578125 4.68896484375 1.5230712890625 Q 4.7021484375 1.5 4.7197265625 1.462646484375 Q 4.7373046875 1.42529296875 4.7607421875 1.37109375 L 4.39013671875 0.685546875 Q 4.376220703125 0.659912109375 4.358642578125 0.6456298828125 Q 4.341064453125 0.63134765625 4.3231201171875 0.6236572265625 Q 4.30517578125 0.615966796875 4.288330078125 0.6119384765625 Q 4.271484375 0.60791015625 4.2579345703125 0.6024169921875 Q 4.244384765625 0.596923828125 4.236328125 0.58740234375 Q 4.228271484375 0.577880859375 4.228271484375 0.55810546875 Q 4.228271484375 0.531005859375 4.2421875 0.51123046875 Q 4.256103515625 0.491455078125 4.2802734375 0.4775390625 Q 4.304443359375 0.463623046875 4.33740234375 0.4552001953125 Q 4.370361328125 0.44677734375 4.4080810546875 0.4420166015625 Q 4.44580078125 0.437255859375 4.48681640625 0.4354248046875 Q 4.52783203125 0.43359375 4.56884765625 0.43359375 Q 4.65234375 0.43359375 4.714599609375 0.438720703125 Q 4.77685546875 0.44384765625 4.8182373046875 0.4573974609375 Q 4.859619140625 0.470947265625 4.8797607421875 0.4954833984375 Q 4.89990234375 0.52001953125 4.89990234375 0.55810546875 Q 4.89990234375 0.572021484375 4.88671875 0.582275390625 Q 4.87353515625 0.592529296875 4.858154296875 0.601318359375 Q 4.8427734375 0.610107421875 4.82958984375 0.6185302734375 Q 4.81640625 0.626953125 4.81640625 0.637939453125 Q 4.81640625 0.64013671875 4.81787109375 0.64453125 Q 4.821533203125 0.652587890625 4.825927734375 0.6610107421875 Q 4.830322265625 0.66943359375 4.83837890625 0.685546875 L 4.973876953125 0.914794921875 M 6.17724609375 0.43212890625 Q 6.17724609375 0.41162109375 6.1402587890625 0.394775390625 Q 6.103271484375 0.3779296875 6.027099609375 0.3779296875 Q 5.974365234375 0.3779296875 5.943603515625 0.38525390625 Q 5.912841796875 0.392578125 5.8970947265625 0.4046630859375 Q 5.88134765625 0.416748046875 5.876953125 0.4317626953125 Q 5.87255859375 0.44677734375 5.87255859375 0.462158203125 Q 5.87255859375 0.49365234375 5.9022216796875 0.5174560546875 Q 5.931884765625 0.541259765625 5.9805908203125 0.5625 Q 6.029296875 0.583740234375 6.091552734375 0.60498046875 Q 6.15380859375 0.626220703125 6.218994140625 0.6522216796875 Q 6.2841796875 0.67822265625 6.346435546875 0.7119140625 Q 6.40869140625 0.74560546875 6.4573974609375 0.791015625 Q 6.506103515625 0.83642578125 6.5357666015625 0.897216796875 Q 6.5654296875 0.9580078125 6.5654296875 1.037841796875 Q 6.5654296875 1.140380859375 6.52587890625 1.2099609375 Q 6.486328125 1.279541015625 6.4156494140625 1.322021484375 Q 6.344970703125 1.364501953125 6.2479248046875 1.3828125 Q 6.15087890625 1.401123046875 6.035888671875 1.401123046875 Q 5.968505859375 1.401123046875 5.90185546875 1.390869140625 Q 5.835205078125 1.380615234375 5.775146484375 1.3612060546875 Q 5.715087890625 1.341796875 5.6634521484375 1.3135986328125 Q 5.61181640625 1.285400390625 5.5740966796875 1.2498779296875 Q 5.536376953125 1.21435546875 5.5147705078125 1.1715087890625 Q 5.4931640625 1.128662109375 5.4931640625 1.07958984375 Q 5.4931640625 1.042236328125 5.5048828125 1.014404296875 Q 5.5166015625 0.986572265625 5.5360107421875 0.9686279296875 Q 5.555419921875 0.95068359375 5.580322265625 0.94189453125 Q 5.605224609375 0.93310546875 5.63232421875 0.93310546875 Q 5.665283203125 0.93310546875 5.6982421875 0.945556640625 Q 5.731201171875 0.9580078125 5.757568359375 0.982177734375 Q 5.783935546875 1.00634765625 5.8004150390625 1.04150390625 Q 5.81689453125 1.07666015625 5.81689453125 1.1220703125 Q 5.81689453125 1.133056640625 5.8275146484375 1.1455078125 Q 5.838134765625 1.157958984375 5.8582763671875 1.1685791015625 Q 5.87841796875 1.17919921875 5.908447265625 1.1865234375 Q 5.9384765625 1.19384765625 5.977294921875 1.19384765625 Q 6.031494140625 1.19384765625 6.063720703125 1.1868896484375 Q 6.095947265625 1.179931640625 6.1131591796875 1.168212890625 Q 6.13037109375 1.156494140625 6.135498046875 1.141845703125 Q 6.140625 1.127197265625 6.140625 1.112548828125 Q 6.140625 1.09423828125 6.113525390625 1.080322265625 Q 6.08642578125 1.06640625 6.04248046875 1.0521240234375 Q 5.99853515625 1.037841796875 5.9417724609375 1.021728515625 Q 5.885009765625 1.005615234375 5.826416015625 0.9832763671875 Q 5.767822265625 0.9609375 5.7110595703125 0.93017578125 Q 5.654296875 0.8994140625 5.6103515625 0.8558349609375 Q 5.56640625 0.812255859375 5.539306640625 0.7540283203125 Q 5.51220703125 0.69580078125 5.51220703125 0.6181640625 Q 5.51220703125 0.541259765625 5.5308837890625 0.48046875 Q 5.549560546875 0.419677734375 5.5836181640625 0.372802734375 Q 5.61767578125 0.325927734375 5.665283203125 0.2926025390625 Q 5.712890625 0.25927734375 5.7711181640625 0.2376708984375 Q 5.829345703125 0.216064453125 5.8963623046875 0.2061767578125 Q 5.96337890625 0.1962890625 6.035888671875 0.1962890625 Q 6.16552734375 0.1962890625 6.2567138671875 0.2222900390625 Q 6.347900390625 0.248291015625 6.405029296875 0.289306640625 Q 6.462158203125 0.330322265625 6.4881591796875 0.3804931640625 Q 6.51416015625 0.4306640625 6.51416015625 0.478271484375 Q 6.51416015625 0.521484375 6.495849609375 0.552978515625 Q 6.4775390625 0.58447265625 6.4482421875 0.60498046875 Q 6.4189453125 0.62548828125 6.381591796875 0.635009765625 Q 6.34423828125 0.64453125 6.30615234375 0.64453125 Q 6.26953125 0.64453125 6.2347412109375 0.636474609375 Q 6.199951171875 0.62841796875 6.1732177734375 0.6123046875 Q 6.146484375 0.59619140625 6.1300048828125 0.5731201171875 Q 6.113525390625 0.550048828125 6.113525390625 0.52001953125 Q 6.113525390625 0.498046875 6.1234130859375 0.487060546875 Q 6.13330078125 0.47607421875 6.1453857421875 0.46875 Q 6.157470703125 0.46142578125 6.1673583984375 0.4541015625 Q 6.17724609375 0.44677734375 6.17724609375 0.43212890625 M 7.14990234375 1.01806640625 Q 7.14990234375 1.042236328125 7.1513671875 1.0645751953125 Q 7.15283203125 1.0869140625 7.16015625 1.1044921875 Q 7.16748046875 1.1220703125 7.182861328125 1.13232421875 Q 7.1982421875 1.142578125 7.225341796875 1.142578125 Q 7.263427734375 1.142578125 7.2916259765625 1.1326904296875 Q 7.31982421875 1.122802734375 7.349853515625 1.106689453125 Q 7.361572265625 1.10009765625 7.371826171875 1.10009765625 Q 7.388671875 1.10009765625 7.3985595703125 1.11474609375 Q 7.408447265625 1.12939453125 7.408447265625 1.147705078125 Q 7.408447265625 1.16015625 7.40478515625 1.168212890625 Q 7.383544921875 1.222412109375 7.3502197265625 1.265625 Q 7.31689453125 1.308837890625 7.2733154296875 1.3388671875 Q 7.229736328125 1.368896484375 7.177734375 1.385009765625 Q 7.125732421875 1.401123046875 7.06640625 1.401123046875 Q 6.984375 1.401123046875 6.92578125 1.3802490234375 Q 6.8671875 1.359375 6.826904296875 1.3245849609375 Q 6.78662109375 1.289794921875 6.762451171875 1.2440185546875 Q 6.73828125 1.1982421875 6.7254638671875 1.1480712890625 Q 6.712646484375 1.097900390625 6.7086181640625 1.0469970703125 Q 6.70458984375 0.99609375 6.70458984375 0.95068359375 L 6.70458984375 0.580078125 L 6.668701171875 0.580078125 Q 6.6416015625 0.580078125 6.626220703125 0.5643310546875 Q 6.61083984375 0.548583984375 6.61083984375 0.529541015625 Q 6.61083984375 0.5068359375 6.63134765625 0.491455078125 Q 6.717041015625 0.429931640625 6.7880859375 0.3724365234375 Q 6.859130859375 0.31494140625 6.910400390625 0.26953125 Q 6.970458984375 0.216796875 7.01806640625 0.170654296875 Q 7.037109375 0.151611328125 7.056884765625 0.1424560546875 Q 7.07666015625 0.13330078125 7.094970703125 0.13330078125 Q 7.11767578125 0.13330078125 7.133056640625 0.148681640625 Q 7.1484375 0.1640625 7.1484375 0.1962890625 L 7.1484375 0.43359375 L 7.3271484375 0.43359375 Q 7.3359375 0.43359375 7.3480224609375 0.4346923828125 Q 7.360107421875 0.435791015625 7.37109375 0.4423828125 Q 7.382080078125 0.448974609375 7.3897705078125 0.4632568359375 Q 7.3974609375 0.4775390625 7.3974609375 0.50390625 Q 7.3974609375 0.532470703125 7.39013671875 0.5478515625 Q 7.3828125 0.563232421875 7.371826171875 0.570556640625 Q 7.36083984375 0.577880859375 7.3487548828125 0.5789794921875 Q 7.336669921875 0.580078125 7.3271484375 0.580078125 L 7.1484375 0.580078125 L 7.14990234375 1.01806640625 M 7.5615234375 0.181640625 Q 7.5615234375 0.14501953125 7.5743408203125 0.1175537109375 Q 7.587158203125 0.090087890625 7.6072998046875 0.0699462890625 Q 7.62744140625 0.0498046875 7.6534423828125 0.0362548828125 Q 7.679443359375 0.022705078125 7.705810546875 0.0146484375 Q 7.732177734375 0.006591796875 7.7567138671875 0.0032958984375 Q 7.78125 0 7.799560546875 0 Q 7.8193359375 0 7.8446044921875 0.0032958984375 Q 7.869873046875 0.006591796875 7.896240234375 0.0146484375 Q 7.922607421875 0.022705078125 7.9482421875 0.0362548828125 Q 7.973876953125 0.0498046875 7.9940185546875 0.0699462890625 Q 8.01416015625 0.090087890625 8.0262451171875 0.1175537109375 Q 8.038330078125 0.14501953125 8.038330078125 0.181640625 Q 8.038330078125 0.217529296875 8.0262451171875 0.245361328125 Q 8.01416015625 0.273193359375 7.9940185546875 0.29296875 Q 7.973876953125 0.312744140625 7.9482421875 0.3262939453125 Q 7.922607421875 0.33984375 7.896240234375 0.347900390625 Q 7.869873046875 0.35595703125 7.8446044921875 0.3592529296875 Q 7.8193359375 0.362548828125 7.799560546875 0.362548828125 Q 7.78125 0.362548828125 7.7567138671875 0.3592529296875 Q 7.732177734375 0.35595703125 7.705810546875 0.347900390625 Q 7.679443359375 0.33984375 7.6534423828125 0.3262939453125 Q 7.62744140625 0.312744140625 7.6072998046875 0.29296875 Q 7.587158203125 0.273193359375 7.5743408203125 0.2457275390625 Q 7.5615234375 0.21826171875 7.5615234375 0.181640625 M 8.015625 1.103759765625 Q 8.015625 1.133056640625 8.023681640625 1.149169921875 Q 8.03173828125 1.165283203125 8.0438232421875 1.1737060546875 Q 8.055908203125 1.18212890625 8.06982421875 1.18505859375 Q 8.083740234375 1.18798828125 8.0958251953125 1.191650390625 Q 8.10791015625 1.1953125 8.115966796875 1.2022705078125 Q 8.1240234375 1.209228515625 8.1240234375 1.225341796875 Q 8.1240234375 1.308837890625 8.03759765625 1.3458251953125 Q 7.951171875 1.3828125 7.787841796875 1.3828125 Q 7.708740234375 1.3828125 7.64794921875 1.3740234375 Q 7.587158203125 1.365234375 7.54541015625 1.3458251953125 Q 7.503662109375 1.326416015625 7.4820556640625 1.2967529296875 Q 7.46044921875 1.26708984375 7.46044921875 1.225341796875 Q 7.46044921875 1.209228515625 7.468505859375 1.2022705078125 Q 7.4765625 1.1953125 7.48828125 1.191650390625 Q 7.5 1.18798828125 7.513916015625 1.18505859375 Q 7.52783203125 1.18212890625 7.53955078125 1.1737060546875 Q 7.55126953125 1.165283203125 7.559326171875 1.1495361328125 Q 7.5673828125 1.1337890625 7.5673828125 1.103759765625 L 7.5673828125 0.712646484375 Q 7.5673828125 0.683349609375 7.559326171875 0.667236328125 Q 7.55126953125 0.651123046875 7.53955078125 0.6427001953125 Q 7.52783203125 0.63427734375 7.513916015625 0.63134765625 Q 7.5 0.62841796875 7.48828125 0.624755859375 Q 7.4765625 0.62109375 7.468505859375 0.6141357421875 Q 7.46044921875 0.607177734375 7.46044921875 0.591064453125 Q 7.46044921875 0.54931640625 7.4820556640625 0.5196533203125 Q 7.503662109375 0.489990234375 7.54541015625 0.4705810546875 Q 7.587158203125 0.451171875 7.64794921875 0.4423828125 Q 7.708740234375 0.43359375 7.787841796875 0.43359375 Q 7.866943359375 0.43359375 7.912353515625 0.441650390625 Q 7.957763671875 0.44970703125 7.9808349609375 0.4691162109375 Q 8.00390625 0.488525390625 8.009765625 0.521484375 Q 8.015625 0.554443359375 8.015625 0.604248046875 L 8.015625 1.103759765625 M 8.67919921875 0.412353515625 Q 8.713623046875 0.412353515625 8.747314453125 0.4222412109375 Q 8.781005859375 0.43212890625 8.807373046875 0.44384765625 Q 8.838134765625 0.457763671875 8.86669921875 0.475341796875 Q 8.85791015625 0.44384765625 8.8538818359375 0.4134521484375 Q 8.849853515625 0.383056640625 8.849853515625 0.355224609375 Q 8.849853515625 0.270263671875 8.8831787109375 0.2054443359375 Q 8.91650390625 0.140625 8.97216796875 0.0970458984375 Q 9.02783203125 0.053466796875 9.098876953125 0.0311279296875 Q 9.169921875 0.0087890625 9.24609375 0.0087890625 Q 9.302490234375 0.0087890625 9.357421875 0.0208740234375 Q 9.412353515625 0.032958984375 9.46142578125 0.0574951171875 Q 9.510498046875 0.08203125 9.5526123046875 0.1190185546875 Q 9.5947265625 0.156005859375 9.6251220703125 0.2054443359375 Q 9.655517578125 0.2548828125 9.6727294921875 0.31787109375 Q 9.68994140625 0.380859375 9.68994140625 0.456298828125 L 9.68994140625 0.848876953125 Q 9.70751953125 0.848876953125 9.7174072265625 0.8477783203125 Q 9.727294921875 0.8466796875 9.7342529296875 0.8441162109375 Q 9.7412109375 0.841552734375 9.7470703125 0.8367919921875 Q 9.7529296875 0.83203125 9.762451171875 0.82470703125 L 9.94482421875 0.68408203125 Q 9.9609375 0.671630859375 9.9664306640625 0.661376953125 Q 9.971923828125 0.651123046875 9.971923828125 0.64306640625 Q 9.971923828125 0.6328125 9.95947265625 0.623291015625 Q 9.947021484375 0.61376953125 9.931640625 0.603515625 Q 9.916259765625 0.59326171875 9.90380859375 0.5819091796875 Q 9.891357421875 0.570556640625 9.891357421875 0.556640625 Q 9.891357421875 0.517822265625 9.9144287109375 0.49365234375 Q 9.9375 0.469482421875 9.9737548828125 0.456298828125 Q 10.010009765625 0.443115234375 10.053955078125 0.4383544921875 Q 10.097900390625 0.43359375 10.138916015625 0.43359375 Q 10.201171875 0.43359375 10.2447509765625 0.440185546875 Q 10.288330078125 0.44677734375 10.3154296875 0.4617919921875 Q 10.342529296875 0.476806640625 10.3546142578125 0.500244140625 Q 10.36669921875 0.523681640625 10.36669921875 0.556640625 Q 10.36669921875 0.577880859375 10.35791015625 0.589599609375 Q 10.34912109375 0.601318359375 10.333740234375 0.608642578125 Q 10.318359375 0.615966796875 10.2982177734375 0.62109375 Q 10.278076171875 0.626220703125 10.254638671875 0.633544921875 Q 10.231201171875 0.640869140625 10.2066650390625 0.6522216796875 Q 10.18212890625 0.66357421875 10.157958984375 0.68408203125 L 10.048828125 0.777099609375 L 10.278076171875 1.114013671875 Q 10.294921875 1.1396484375 10.3150634765625 1.1517333984375 Q 10.335205078125 1.163818359375 10.35498046875 1.1693115234375 Q 10.374755859375 1.1748046875 10.39306640625 1.1766357421875 Q 10.411376953125 1.178466796875 10.4256591796875 1.18212890625 Q 10.43994140625 1.185791015625 10.4483642578125 1.1942138671875 Q 10.456787109375 1.20263671875 10.456787109375 1.222412109375 Q 10.456787109375 1.265625 10.4384765625 1.29638671875 Q 10.420166015625 1.3271484375 10.38427734375 1.34619140625 Q 10.348388671875 1.365234375 10.294921875 1.3740234375 Q 10.241455078125 1.3828125 10.171875 1.3828125 Q 10.09130859375 1.3828125 10.04296875 1.3743896484375 Q 9.99462890625 1.365966796875 9.967529296875 1.3509521484375 Q 9.9404296875 1.3359375 9.9290771484375 1.3154296875 Q 9.917724609375 1.294921875 9.9107666015625 1.2696533203125 Q 9.90380859375 1.244384765625 9.896484375 1.2161865234375 Q 9.88916015625 1.18798828125 9.8701171875 1.157958984375 L 9.762451171875 0.988037109375 Q 9.76025390625 0.985107421875 9.756591796875 0.9814453125 Q 9.7529296875 0.977783203125 9.7452392578125 0.9744873046875 Q 9.737548828125 0.97119140625 9.724365234375 0.9693603515625 Q 9.711181640625 0.967529296875 9.68994140625 0.967529296875 L 9.68994140625 1.100830078125 Q 9.68994140625 1.130859375 9.697998046875 1.147705078125 Q 9.7060546875 1.16455078125 9.7181396484375 1.1729736328125 Q 9.730224609375 1.181396484375 9.744140625 1.1846923828125 Q 9.758056640625 1.18798828125 9.7701416015625 1.191650390625 Q 9.7822265625 1.1953125 9.790283203125 1.2022705078125 Q 9.79833984375 1.209228515625 9.79833984375 1.225341796875 Q 9.79833984375 1.308837890625 9.7119140625 1.3458251953125 Q 9.62548828125 1.3828125 9.462158203125 1.3828125 Q 9.383056640625 1.3828125 9.322265625 1.3740234375 Q 9.261474609375 1.365234375 9.2197265625 1.3458251953125 Q 9.177978515625 1.326416015625 9.1563720703125 1.2967529296875 Q 9.134765625 1.26708984375 9.134765625 1.225341796875 Q 9.134765625 1.209228515625 9.142822265625 1.2022705078125 Q 9.15087890625 1.1953125 9.16259765625 1.191650390625 Q 9.17431640625 1.18798828125 9.188232421875 1.18505859375 Q 9.2021484375 1.18212890625 9.2138671875 1.1737060546875 Q 9.2255859375 1.165283203125 9.233642578125 1.1495361328125 Q 9.24169921875 1.1337890625 9.24169921875 1.103759765625 L 9.24169921875 0.5185546875 Q 9.24169921875 0.473876953125 9.2340087890625 0.441650390625 Q 9.226318359375 0.409423828125 9.213134765625 0.388916015625 Q 9.199951171875 0.368408203125 9.18310546875 0.35888671875 Q 9.166259765625 0.349365234375 9.148681640625 0.349365234375 Q 9.12890625 0.349365234375 9.109130859375 0.3599853515625 Q 9.08935546875 0.37060546875 9.073974609375 0.390380859375 Q 9.05859375 0.41015625 9.0487060546875 0.4376220703125 Q 9.038818359375 0.465087890625 9.038818359375 0.498046875 Q 9.038818359375 0.52294921875 9.0465087890625 0.5489501953125 Q 9.05419921875 0.574951171875 9.06298828125 0.60205078125 Q 9.07177734375 0.629150390625 9.0794677734375 0.6573486328125 Q 9.087158203125 0.685546875 9.087158203125 0.714111328125 Q 9.087158203125 0.73974609375 9.0791015625 0.759521484375 Q 9.071044921875 0.779296875 9.0574951171875 0.793212890625 Q 9.0439453125 0.80712890625 9.02490234375 0.814453125 Q 9.005859375 0.82177734375 8.98388671875 0.82177734375 Q 8.945068359375 0.82177734375 8.9219970703125 0.8052978515625 Q 8.89892578125 0.788818359375 8.88427734375 0.7642822265625 Q 8.86962890625 0.73974609375 8.859375 0.7108154296875 Q 8.84912109375 0.681884765625 8.835205078125 0.6573486328125 Q 8.8212890625 0.6328125 8.800048828125 0.6163330078125 Q 8.77880859375 0.599853515625 8.7421875 0.599853515625 Q 8.710693359375 0.599853515625 8.6876220703125 0.613037109375 Q 8.66455078125 0.626220703125 8.649169921875 0.6514892578125 Q 8.6337890625 0.6767578125 8.62646484375 0.7130126953125 Q 8.619140625 0.749267578125 8.619140625 0.794677734375 Q 8.619140625 0.970458984375 8.6722412109375 1.0550537109375 Q 8.725341796875 1.1396484375 8.842529296875 1.1396484375 Q 8.876220703125 1.1396484375 8.911376953125 1.1304931640625 Q 8.946533203125 1.121337890625 8.9765625 1.1103515625 Q 9.006591796875 1.099365234375 9.028564453125 1.0902099609375 Q 9.050537109375 1.0810546875 9.05859375 1.0810546875 Q 9.075439453125 1.0810546875 9.0849609375 1.0953369140625 Q 9.094482421875 1.109619140625 9.094482421875 1.1279296875 Q 9.094482421875 1.1337890625 9.0941162109375 1.138916015625 Q 9.09375 1.14404296875 9.091552734375 1.149169921875 Q 9.0703125 1.203369140625 9.031494140625 1.2491455078125 Q 8.99267578125 1.294921875 8.9388427734375 1.3289794921875 Q 8.885009765625 1.363037109375 8.81689453125 1.382080078125 Q 8.748779296875 1.401123046875 8.6689453125 1.401123046875 Q 8.5869140625 1.401123046875 8.518798828125 1.3817138671875 Q 8.45068359375 1.3623046875 8.3961181640625 1.3275146484375 Q 8.341552734375 1.292724609375 8.3009033203125 1.245849609375 Q 8.26025390625 1.198974609375 8.2327880859375 1.1436767578125 Q 8.205322265625 1.08837890625 8.1917724609375 1.0279541015625 Q 8.17822265625 0.967529296875 8.17822265625 0.906005859375 Q 8.17822265625 0.84375 8.192138671875 0.7825927734375 Q 8.2060546875 0.721435546875 8.23388671875 0.66650390625 Q 8.26171875 0.611572265625 8.303466796875 0.5650634765625 Q 8.34521484375 0.5185546875 8.40087890625 0.4844970703125 Q 8.45654296875 0.450439453125 8.526123046875 0.431396484375 Q 8.595703125 0.412353515625 8.67919921875 0.412353515625 M 11.01123046875 0.599853515625 Q 10.98779296875 0.599853515625 10.96728515625 0.6104736328125 Q 10.94677734375 0.62109375 10.9317626953125 0.64306640625 Q 10.916748046875 0.6650390625 10.9083251953125 0.6990966796875 Q 10.89990234375 0.733154296875 10.89990234375 0.780029296875 L 11.133544921875 0.780029296875 Q 11.133544921875 0.728759765625 11.12548828125 0.6939697265625 Q 11.117431640625 0.6591796875 11.10205078125 0.6383056640625 Q 11.086669921875 0.617431640625 11.0635986328125 0.608642578125 Q 11.04052734375 0.599853515625 11.01123046875 0.599853515625 M 10.95703125 0.412353515625 Q 11.05517578125 0.412353515625 11.1339111328125 0.441650390625 Q 11.212646484375 0.470947265625 11.2679443359375 0.522216796875 Q 11.3232421875 0.573486328125 11.3529052734375 0.6427001953125 Q 11.382568359375 0.7119140625 11.382568359375 0.791748046875 Q 11.382568359375 0.82470703125 11.3734130859375 0.843017578125 Q 11.3642578125 0.861328125 11.347412109375 0.8701171875 Q 11.33056640625 0.87890625 11.3056640625 0.881103515625 Q 11.28076171875 0.88330078125 11.249267578125 0.88330078125 L 10.89697265625 0.88330078125 Q 10.89697265625 0.9638671875 10.9134521484375 1.0140380859375 Q 10.929931640625 1.064208984375 10.959228515625 1.092041015625 Q 10.988525390625 1.119873046875 11.029541015625 1.1297607421875 Q 11.070556640625 1.1396484375 11.120361328125 1.1396484375 Q 11.146728515625 1.1396484375 11.1749267578125 1.134521484375 Q 11.203125 1.12939453125 11.2291259765625 1.121337890625 Q 11.255126953125 1.11328125 11.277099609375 1.1044921875 Q 11.299072265625 1.095703125 11.313720703125 1.087646484375 Q 11.325439453125 1.0810546875 11.33642578125 1.0810546875 Q 11.353271484375 1.0810546875 11.36279296875 1.0953369140625 Q 11.372314453125 1.109619140625 11.372314453125 1.127197265625 Q 11.372314453125 1.133056640625 11.37158203125 1.13818359375 Q 11.370849609375 1.143310546875 11.36865234375 1.1484375 Q 11.347412109375 1.20263671875 11.310791015625 1.248779296875 Q 11.274169921875 1.294921875 11.2218017578125 1.3289794921875 Q 11.16943359375 1.363037109375 11.1005859375 1.382080078125 Q 11.03173828125 1.401123046875 10.946044921875 1.401123046875 Q 10.864013671875 1.401123046875 10.7962646484375 1.3817138671875 Q 10.728515625 1.3623046875 10.6739501953125 1.3275146484375 Q 10.619384765625 1.292724609375 10.578369140625 1.245849609375 Q 10.537353515625 1.198974609375 10.51025390625 1.1436767578125 Q 10.483154296875 1.08837890625 10.4696044921875 1.0279541015625 Q 10.4560546875 0.967529296875 10.4560546875 0.906005859375 Q 10.4560546875 0.84375 10.469970703125 0.7825927734375 Q 10.48388671875 0.721435546875 10.51171875 0.66650390625 Q 10.53955078125 0.611572265625 10.581298828125 0.5650634765625 Q 10.623046875 0.5185546875 10.6787109375 0.4844970703125 Q 10.734375 0.450439453125 10.803955078125 0.431396484375 Q 10.87353515625 0.412353515625 10.95703125 0.412353515625 M 11.980224609375 1.100830078125 Q 11.980224609375 1.130859375 11.98828125 1.147705078125 Q 11.996337890625 1.16455078125 12.0084228515625 1.1729736328125 Q 12.0205078125 1.181396484375 12.034423828125 1.1846923828125 Q 12.04833984375 1.18798828125 12.0604248046875 1.191650390625 Q 12.072509765625 1.1953125 12.08056640625 1.2022705078125 Q 12.088623046875 1.209228515625 12.088623046875 1.225341796875 Q 12.088623046875 1.308837890625 12.002197265625 1.3458251953125 Q 11.915771484375 1.3828125 11.75244140625 1.3828125 Q 11.67333984375 1.3828125 11.612548828125 1.3740234375 Q 11.5517578125 1.365234375 11.510009765625 1.3458251953125 Q 11.46826171875 1.326416015625 11.4466552734375 1.2967529296875 Q 11.425048828125 1.26708984375 11.425048828125 1.225341796875 Q 11.425048828125 1.209228515625 11.43310546875 1.2022705078125 Q 11.441162109375 1.1953125 11.452880859375 1.191650390625 Q 11.464599609375 1.18798828125 11.478515625 1.18505859375 Q 11.492431640625 1.18212890625 11.504150390625 1.1737060546875 Q 11.515869140625 1.165283203125 11.52392578125 1.1495361328125 Q 11.531982421875 1.1337890625 11.531982421875 1.103759765625 L 11.531982421875 0.712646484375 Q 11.531982421875 0.683349609375 11.52392578125 0.667236328125 Q 11.515869140625 0.651123046875 11.504150390625 0.6427001953125 Q 11.492431640625 0.63427734375 11.478515625 0.63134765625 Q 11.464599609375 0.62841796875 11.452880859375 0.624755859375 Q 11.441162109375 0.62109375 11.43310546875 0.6141357421875 Q 11.425048828125 0.607177734375 11.425048828125 0.591064453125 Q 11.425048828125 0.54931640625 11.4466552734375 0.5196533203125 Q 11.46826171875 0.489990234375 11.510009765625 0.4705810546875 Q 11.5517578125 0.451171875 11.612548828125 0.4423828125 Q 11.67333984375 0.43359375 11.75244140625 0.43359375 Q 11.824951171875 0.43359375 11.8685302734375 0.4478759765625 Q 11.912109375 0.462158203125 11.93701171875 0.489990234375 Q 11.95751953125 0.476806640625 11.9794921875 0.4647216796875 Q 12.00146484375 0.45263671875 12.0263671875 0.4434814453125 Q 12.05126953125 0.434326171875 12.08056640625 0.42919921875 Q 12.10986328125 0.424072265625 12.14501953125 0.424072265625 Q 12.18896484375 0.424072265625 12.2296142578125 0.4332275390625 Q 12.270263671875 0.4423828125 12.3017578125 0.4632568359375 Q 12.333251953125 0.484130859375 12.3519287109375 0.5174560546875 Q 12.37060546875 0.55078125 12.37060546875 0.599853515625 Q 12.37060546875 0.632080078125 12.359619140625 0.662841796875 Q 12.3486328125 0.693603515625 12.3270263671875 0.7174072265625 Q 12.305419921875 0.7412109375 12.2728271484375 0.755859375 Q 12.240234375 0.7705078125 12.19775390625 0.7705078125 Q 12.1552734375 0.7705078125 12.131103515625 0.758056640625 Q 12.10693359375 0.74560546875 12.09375 0.727294921875 Q 12.08056640625 0.708984375 12.0743408203125 0.6873779296875 Q 12.068115234375 0.665771484375 12.0611572265625 0.6474609375 Q 12.05419921875 0.629150390625 12.0428466796875 0.61669921875 Q 12.031494140625 0.604248046875 12.0087890625 0.604248046875 Q 11.986083984375 0.604248046875 11.978759765625 0.6097412109375 Q 11.971435546875 0.615234375 11.971435546875 0.62548828125 Q 11.971435546875 0.638671875 11.9765625 0.6591796875 Q 11.981689453125 0.6796875 11.981689453125 0.708984375 L 11.980224609375 1.100830078125 M 12.98291015625 0.604248046875 Q 12.98291015625 0.58740234375 12.9521484375 0.573486328125 Q 12.92138671875 0.5595703125 12.8583984375 0.5595703125 Q 12.826171875 0.5595703125 12.8060302734375 0.563232421875 Q 12.785888671875 0.56689453125 12.774169921875 0.573486328125 Q 12.762451171875 0.580078125 12.7584228515625 0.589599609375 Q 12.75439453125 0.59912109375 12.75439453125 0.611572265625 Q 12.75439453125 0.6357421875 12.77783203125 0.6536865234375 Q 12.80126953125 0.671630859375 12.8397216796875 0.6884765625 Q 12.878173828125 0.705322265625 12.92724609375 0.72216796875 Q 12.976318359375 0.739013671875 13.027587890625 0.7606201171875 Q 13.078857421875 0.7822265625 13.1279296875 0.8104248046875 Q 13.177001953125 0.838623046875 13.2154541015625 0.8770751953125 Q 13.25390625 0.91552734375 13.27734375 0.966796875 Q 13.30078125 1.01806640625 13.30078125 1.08544921875 Q 13.30078125 1.168212890625 13.2630615234375 1.2279052734375 Q 13.225341796875 1.28759765625 13.163818359375 1.3260498046875 Q 13.102294921875 1.364501953125 13.0235595703125 1.3828125 Q 12.94482421875 1.401123046875 12.86279296875 1.401123046875 Q 12.780029296875 1.401123046875 12.7005615234375 1.3839111328125 Q 12.62109375 1.36669921875 12.558837890625 1.3359375 Q 12.49658203125 1.30517578125 12.45849609375 1.261962890625 Q 12.42041015625 1.21875 12.42041015625 1.166748046875 Q 12.42041015625 1.135986328125 12.429931640625 1.1129150390625 Q 12.439453125 1.08984375 12.4552001953125 1.0748291015625 Q 12.470947265625 1.059814453125 12.491455078125 1.052490234375 Q 12.511962890625 1.045166015625 12.533935546875 1.045166015625 Q 12.569091796875 1.045166015625 12.591796875 1.05322265625 Q 12.614501953125 1.061279296875 12.6287841796875 1.0740966796875 Q 12.64306640625 1.0869140625 12.65185546875 1.1033935546875 Q 12.66064453125 1.119873046875 12.668701171875 1.137451171875 Q 12.6767578125 1.155029296875 12.686279296875 1.1715087890625 Q 12.69580078125 1.18798828125 12.7119140625 1.2008056640625 Q 12.72802734375 1.213623046875 12.7532958984375 1.2216796875 Q 12.778564453125 1.229736328125 12.8173828125 1.229736328125 Q 12.879638671875 1.229736328125 12.9093017578125 1.21875 Q 12.93896484375 1.207763671875 12.93896484375 1.175537109375 Q 12.93896484375 1.163818359375 12.9173583984375 1.1524658203125 Q 12.895751953125 1.14111328125 12.860595703125 1.128662109375 Q 12.825439453125 1.1162109375 12.780029296875 1.100830078125 Q 12.734619140625 1.08544921875 12.687744140625 1.0645751953125 Q 12.640869140625 1.043701171875 12.595458984375 1.0162353515625 Q 12.550048828125 0.98876953125 12.514892578125 0.9525146484375 Q 12.479736328125 0.916259765625 12.4581298828125 0.869384765625 Q 12.4365234375 0.822509765625 12.4365234375 0.76318359375 Q 12.4365234375 0.697998046875 12.45263671875 0.6463623046875 Q 12.46875 0.5947265625 12.4976806640625 0.5555419921875 Q 12.526611328125 0.516357421875 12.56689453125 0.4892578125 Q 12.607177734375 0.462158203125 12.65478515625 0.4449462890625 Q 12.702392578125 0.427734375 12.755859375 0.4200439453125 Q 12.809326171875 0.412353515625 12.86572265625 0.412353515625 Q 12.963134765625 0.412353515625 13.03271484375 0.4306640625 Q 13.102294921875 0.448974609375 13.1473388671875 0.4775390625 Q 13.1923828125 0.506103515625 13.213623046875 0.5416259765625 Q 13.23486328125 0.5771484375 13.23486328125 0.611572265625 Q 13.23486328125 0.6357421875 13.2249755859375 0.6573486328125 Q 13.215087890625 0.678955078125 13.196044921875 0.695068359375 Q 13.177001953125 0.711181640625 13.14990234375 0.720703125 Q 13.122802734375 0.730224609375 13.087646484375 0.730224609375 Q 13.048095703125 0.730224609375 13.0228271484375 0.725830078125 Q 12.99755859375 0.721435546875 12.9825439453125 0.7137451171875 Q 12.967529296875 0.7060546875 12.961669921875 0.6954345703125 Q 12.955810546875 0.684814453125 12.955810546875 0.671630859375 Q 12.955810546875 0.658447265625 12.960205078125 0.65185546875 Q 12.964599609375 0.645263671875 12.9693603515625 0.6390380859375 Q 12.97412109375 0.6328125 12.978515625 0.62548828125 Q 12.98291015625 0.6181640625 12.98291015625 0.604248046875" fill="#102036" fill-rule="nonzero"></path></g><g><path d=" M 0.5989583333333334 2.7500504557291667 Q 0.5989583333333334 2.7687679036458337 0.5757649739583334 2.7775162760416667 Q 0.5525716145833334 2.7862646484375 0.52490234375 2.7862646484375 L 0.52001953125 2.7862646484375 Q 0.46712239583333337 2.7862646484375 0.45308430989583337 2.7821956380208337 Q 0.43904622395833337 2.7781266276041667 0.4300944010416667 2.7740576171875 Q 0.41219075520833337 2.7651057942708337 0.41219075520833337 2.7451676432291667 Q 0.41219075520833337 2.7362158203125 0.4339599609375 2.7349951171875 Q 0.4557291666666667 2.7337744140625 0.4557291666666667 2.7211604817708337 Q 0.4557291666666667 2.7166845703125 0.447998046875 2.7016292317708337 L 0.4484049479166667 2.7016292317708337 L 0.40364583333333337 2.5950211588541667 L 0.16398111979166669 2.5950211588541667 Q 0.12044270833333334 2.7097672526041667 0.12044270833333334 2.7199397786458337 Q 0.12044270833333334 2.7301123046875 0.125732421875 2.7317399088541667 L 0.12532552083333334 2.7313330078125 Q 0.128173828125 2.7329606119791667 0.13916015625 2.7358089192708337 Q 0.16642252604166669 2.7423193359375 0.16642252604166669 2.7500504557291667 Q 0.16642252604166669 2.7862646484375 0.07486979166666667 2.7862646484375 Q -0.001220703125 2.7862646484375 -0.001220703125 2.7500504557291667 Q -0.001220703125 2.7423193359375 0.0262451171875 2.7345882161458337 Q 0.0537109375 2.7268570963541667 0.06510416666666667 2.6963395182291667 L 0.22989908854166669 2.2654313151041667 Q 0.225830078125 2.2544449869791667 0.225830078125 2.2463069661458333 Q 0.225830078125 2.2149755859375 0.2897135416666667 2.2149755859375 Q 0.3409830729166667 2.2149755859375 0.35603841145833337 2.2540380859375 L 0.5277506510416667 2.6934912109375 Q 0.5423990885416667 2.7284847005208337 0.572509765625 2.7333675130208337 Q 0.5916341145833334 2.7362158203125 0.5952962239583334 2.7396744791666667 Q 0.5989583333333334 2.7431331380208337 0.5989583333333334 2.7500504557291667 M 0.17985026041666669 2.5559586588541667 L 0.3873697916666667 2.5559586588541667 L 0.28157552083333337 2.2654313151041667 L 0.17985026041666669 2.5559586588541667 M 0.7499186197916667 2.7862646484375 L 0.7149251302083334 2.7866715494791667 Q 0.6616210937500001 2.7866715494791667 0.6490071614583334 2.7703955078125 Q 0.6433105468750001 2.7630712890625 0.6433105468750001 2.7526953125 Q 0.6433105468750001 2.7423193359375 0.6514485677083334 2.7382503255208337 Q 0.6595865885416667 2.7341813151041667 0.6695556640625001 2.7337744140625 Q 0.6795247395833334 2.7333675130208337 0.6876627604166667 2.7274674479166667 Q 0.6958007812500001 2.7215673828125 0.6958007812500001 2.7085465494791667 L 0.6958007812500001 2.5075374348958337 Q 0.6958007812500001 2.4713232421875 0.6870524088541667 2.4627783203125 Q 0.6783040364583334 2.4542333984375 0.6724039713541667 2.4517919921875 Q 0.6665039062500001 2.4493505859375 0.6538899739583334 2.4456884765625 Q 0.6412760416666667 2.4420263671875 0.6333414713541667 2.4383642578125 Q 0.6254069010416667 2.4347021484375 0.6254069010416667 2.4273779296875 Q 0.6254069010416667 2.3948258463541667 0.7128906250000001 2.3948258463541667 Q 0.7499186197916667 2.3948258463541667 0.7598876953125001 2.4076432291666667 Q 0.7698567708333335 2.4204606119791667 0.7698567708333335 2.4668473307291667 Q 0.7836914062500001 2.4318538411458337 0.8156331380208335 2.4119156901041667 Q 0.8475748697916667 2.3919775390625 0.8811442057291667 2.3919775390625 Q 0.9147135416666667 2.3919775390625 0.9364827473958335 2.4064225260416667 Q 0.9582519531250001 2.4208675130208337 0.9582519531250001 2.4430436197916667 Q 0.9582519531250001 2.4652197265625 0.9440104166666667 2.4784440104166667 Q 0.9297688802083335 2.4916682942708337 0.9090169270833335 2.4916682942708337 Q 0.8882649739583335 2.4916682942708337 0.8734130859375001 2.4806819661458337 Q 0.8585611979166667 2.4696956380208337 0.8540852864583335 2.4521988932291667 Q 0.8435058593750001 2.4505712890625 0.8365885416666667 2.4505712890625 Q 0.7731119791666667 2.4505712890625 0.7731119791666667 2.5966487630208337 L 0.7731119791666667 2.7085465494791667 Q 0.7731119791666667 2.7321468098958337 0.7993570963541667 2.7335709635416667 Q 0.8256022135416667 2.7349951171875 0.8256022135416667 2.7545263671875 Q 0.8256022135416667 2.7769059244791667 0.8011881510416667 2.7821956380208337 Q 0.7824707031250001 2.7862646484375 0.7499186197916667 2.7862646484375 M 1.0286458333333335 2.4493505859375 L 1.0038248697916667 2.4497574869791667 Q 0.9887695312500001 2.4497574869791667 0.9818522135416669 2.4469091796875 Q 0.9749348958333335 2.4440608723958337 0.9749348958333335 2.4349055989583337 Q 0.9749348958333335 2.4257503255208337 0.9828694661458335 2.41822265625 Q 0.9908040364583335 2.4106949869791667 1.0009765625000002 2.4066259765625 Q 1.0290527343750002 2.3952327473958337 1.0345458984375002 2.3872981770833337 Q 1.0400390625000002 2.3793636067708337 1.0510253906250002 2.3525081380208337 Q 1.0782877604166667 2.2853694661458333 1.0965983072916667 2.2853694661458333 Q 1.1059570312500002 2.2853694661458333 1.1073811848958335 2.3055110677083337 Q 1.1088053385416667 2.3256526692708337 1.1090087890625002 2.3362320963541667 Q 1.1092122395833335 2.3468115234375 1.1088053385416667 2.3677669270833337 Q 1.1083984375000002 2.3887223307291667 1.1083984375000002 2.3968603515625 L 1.2052408854166667 2.3972672526041667 Q 1.2194824218750002 2.3972672526041667 1.2292480468750002 2.4043880208333337 Q 1.2390136718750002 2.4115087890625 1.2390136718750002 2.4233089192708337 Q 1.2390136718750002 2.4351090494791667 1.2294514973958335 2.4416194661458337 Q 1.2198893229166667 2.4481298828125 1.2056477864583335 2.4481298828125 L 1.1083984375000002 2.4481298828125 L 1.1079915364583335 2.6560563151041667 Q 1.1079915364583335 2.7443538411458337 1.1523437500000002 2.7443538411458337 Q 1.1645507812500002 2.7443538411458337 1.1885579427083335 2.736826171875 Q 1.2125651041666667 2.7292985026041667 1.2198893229166667 2.7292985026041667 Q 1.2365722656250002 2.7292985026041667 1.2365722656250002 2.7484228515625 Q 1.2365722656250002 2.7634781901041667 1.1973063151041667 2.7785335286458337 Q 1.1580403645833335 2.7935888671875 1.1167399088541667 2.7935888671875 Q 1.0754394531250002 2.7935888671875 1.0520426432291667 2.7614436848958337 Q 1.0286458333333335 2.7292985026041667 1.0286458333333335 2.6768082682291667 L 1.0286458333333335 2.4493505859375 M 1.6605631510416667 2.7862646484375 Q 1.5620930989583335 2.7862646484375 1.5620930989583335 2.7496435546875 Q 1.5620930989583335 2.7394710286458337 1.5791829427083335 2.7364192708333337 Q 1.5962727864583335 2.7333675130208337 1.6133626302083335 2.7301123046875 Q 1.6304524739583335 2.7268570963541667 1.6304524739583335 2.7162776692708337 L 1.6304524739583335 2.2658382161458333 L 1.5112304687500002 2.2662451171875 Q 1.4912923177083335 2.2662451171875 1.4748128255208335 2.3114111328125 Q 1.4583333333333335 2.3565771484375 1.4392089843750002 2.3565771484375 Q 1.4074707031250002 2.3565771484375 1.4074707031250002 2.3191422526041667 Q 1.4074707031250002 2.2670589192708333 1.4251708984375002 2.2408138020833333 Q 1.4428710937500002 2.2145686848958333 1.4892578125000002 2.2145686848958333 L 1.7260742187500002 2.2145686848958333 Q 1.8550618489583335 2.2145686848958333 1.886393229166667 2.2153824869791667 Q 1.9283040364583335 2.2174169921875 1.938883463541667 2.2861832682291667 Q 1.9417317708333335 2.3032731119791667 1.9417317708333335 2.3215836588541667 Q 1.9417317708333335 2.3565771484375 1.9099934895833335 2.3565771484375 Q 1.8892415364583335 2.3565771484375 1.875406901041667 2.3114111328125 Q 1.8701171875000002 2.2943212890625 1.8603515625000002 2.280283203125 Q 1.8505859375000002 2.2662451171875 1.8379720052083335 2.2662451171875 L 1.7187500000000002 2.2658382161458333 L 1.7187500000000002 2.7162776692708337 Q 1.7187500000000002 2.7280777994791667 1.7535400390625002 2.7339778645833337 Q 1.7883300781250002 2.7398779296875 1.7883300781250002 2.7496435546875 Q 1.7883300781250002 2.7638850911458337 1.7812093098958335 2.7691748046875 Q 1.774088541666667 2.7744645182291667 1.769205729166667 2.7773128255208337 Q 1.764322916666667 2.7801611328125 1.755167643229167 2.7817887369791667 Q 1.746012369791667 2.7834163411458337 1.7395019531250002 2.78443359375 Q 1.7329915364583335 2.7854508463541667 1.7211914062500002 2.7858577473958337 Q 1.709391276041667 2.7862646484375 1.7028808593750002 2.7862646484375 Q 1.6817220052083335 2.7862646484375 1.6605631510416667 2.7862646484375 M 2.3571777343750004 2.7862646484375 L 2.322184244791667 2.7866715494791667 Q 2.2688802083333335 2.7866715494791667 2.256266276041667 2.7703955078125 Q 2.2505696614583335 2.7630712890625 2.2505696614583335 2.7526953125 Q 2.2505696614583335 2.7423193359375 2.258707682291667 2.7382503255208337 Q 2.2668457031250004 2.7341813151041667 2.2768147786458335 2.7337744140625 Q 2.286783854166667 2.7333675130208337 2.2949218750000004 2.7274674479166667 Q 2.3030598958333335 2.7215673828125 2.3030598958333335 2.7085465494791667 L 2.3034667968750004 2.5901383463541667 Q 2.3034667968750004 2.5152685546875 2.285563151041667 2.4798681640625 Q 2.266031901041667 2.4399918619791667 2.2041829427083335 2.4399918619791667 Q 2.139078776041667 2.4399918619791667 2.1130371093750004 2.4810888671875 Q 2.0894368489583335 2.5193375651041667 2.0894368489583335 2.5921728515625 L 2.0894368489583335 2.7085465494791667 Q 2.0894368489583335 2.7321468098958337 2.1156819661458335 2.7335709635416667 Q 2.1419270833333335 2.7349951171875 2.1419270833333335 2.7545263671875 Q 2.1419270833333335 2.7769059244791667 2.117106119791667 2.7821956380208337 Q 2.0992024739583335 2.7862646484375 2.0662434895833335 2.7862646484375 L 2.0312500000000004 2.7866715494791667 Q 1.977945963541667 2.7866715494791667 1.9653320312500002 2.7703955078125 Q 1.959635416666667 2.7630712890625 1.959635416666667 2.7526953125 Q 1.959635416666667 2.7423193359375 1.9677734375000002 2.7382503255208337 Q 1.9759114583333337 2.7341813151041667 1.985880533854167 2.7337744140625 Q 1.9958496093750002 2.7333675130208337 2.0039876302083335 2.7274674479166667 Q 2.012125651041667 2.7215673828125 2.012125651041667 2.7085465494791667 L 2.012125651041667 2.2654313151041667 Q 2.012125651041667 2.2418310546875 1.982828776041667 2.2369482421875 Q 1.9624837239583337 2.2336930338541667 1.9582112630208337 2.2298274739583333 Q 1.9539388020833337 2.2259619140625 1.9539388020833337 2.2170100911458333 Q 1.9539388020833337 2.2080582682291667 1.9624837239583337 2.2007340494791667 Q 1.9710286458333337 2.1934098307291667 1.9848632812500002 2.1897477213541667 Q 2.0092773437500004 2.1832373046875 2.0393880208333335 2.1832373046875 Q 2.0898437500000004 2.1832373046875 2.0898437500000004 2.2137548828125 L 2.0898437500000004 2.4501643880208337 Q 2.145182291666667 2.3875016276041667 2.2298177083333335 2.3875016276041667 Q 2.3144531250000004 2.3875016276041667 2.3476155598958335 2.4308365885416667 Q 2.380777994791667 2.4741715494791667 2.380777994791667 2.5620621744791667 L 2.3803710937500004 2.7085465494791667 Q 2.3803710937500004 2.7321468098958337 2.4066162109375004 2.7335709635416667 Q 2.4328613281250004 2.7349951171875 2.4328613281250004 2.7545263671875 Q 2.4328613281250004 2.7769059244791667 2.4084472656250004 2.7821956380208337 Q 2.3897298177083335 2.7862646484375 2.3571777343750004 2.7862646484375 M 2.518513997395834 2.5162858072916667 Q 2.499593098958334 2.5042822265625 2.499593098958334 2.4849544270833337 Q 2.499593098958334 2.4656266276041667 2.510579427083334 2.4485367838541667 Q 2.521565755208334 2.4314469401041667 2.5390625000000004 2.4206640625 Q 2.556559244791667 2.4098811848958337 2.579752604166667 2.4025569661458337 Q 2.6220703125000004 2.3891292317708337 2.6708984375000004 2.3891292317708337 Q 2.753092447916667 2.3891292317708337 2.790323893229167 2.425546875 Q 2.827555338541667 2.4619645182291667 2.827555338541667 2.5457861328125 L 2.8271484375000004 2.6658219401041667 Q 2.8271484375000004 2.7093603515625 2.8381347656250004 2.7203466796875 Q 2.840983072916667 2.7231949869791667 2.856038411458334 2.7276708984375 Q 2.897542317708334 2.7406917317708337 2.897542317708334 2.7476090494791667 Q 2.897542317708334 2.7903336588541667 2.8100585937500004 2.7903336588541667 Q 2.7770996093750004 2.7903336588541667 2.767130533854167 2.7756852213541667 Q 2.757161458333334 2.7610367838541667 2.7563476562500004 2.7223811848958337 Q 2.7380371093750004 2.7553401692708337 2.700602213541667 2.7756852213541667 Q 2.663167317708334 2.7960302734375 2.620442708333334 2.7960302734375 Q 2.577718098958334 2.7960302734375 2.548014322916667 2.7850439453125 Q 2.5183105468750004 2.7740576171875 2.499796549479167 2.7494401041666667 Q 2.481282552083334 2.7248225911458337 2.481282552083334 2.6963395182291667 Q 2.481282552083334 2.6678564453125 2.4877929687500004 2.6505631510416667 Q 2.494303385416667 2.6332698567708337 2.504069010416667 2.6214697265625 Q 2.513834635416667 2.6096695963541667 2.530721028645834 2.6003108723958337 Q 2.5476074218750004 2.5909521484375 2.5622558593750004 2.585458984375 Q 2.5769042968750004 2.5799658203125 2.6000976562500004 2.5754899088541667 Q 2.6342773437500004 2.5689794921875 2.6574707031250004 2.5663346354166667 Q 2.6806640625000004 2.5636897786458337 2.681477864583334 2.5632828776041667 Q 2.683919270833334 2.5628759765625 2.7093505859375004 2.5602311197916667 Q 2.734781901041667 2.5575862630208337 2.749430338541667 2.5494482421875 Q 2.749430338541667 2.4721370442708337 2.728678385416667 2.4485367838541667 Q 2.710367838541667 2.4281917317708337 2.6684570312500004 2.4281917317708337 Q 2.626546223958334 2.4281917317708337 2.6055908203125004 2.4495540364583337 Q 2.584635416666667 2.4709163411458337 2.584635416666667 2.5173030598958337 L 2.585042317708334 2.5262548828125 Q 2.567952473958334 2.5282893880208337 2.552693684895834 2.5282893880208337 Q 2.537434895833334 2.5282893880208337 2.518513997395834 2.5162858072916667 M 2.749430338541667 2.5860693359375 Q 2.721761067708334 2.5962418619791667 2.686971028645834 2.600107421875 Q 2.652180989583334 2.6039729817708337 2.632242838541667 2.6092626953125 Q 2.6123046875000004 2.6145524088541667 2.5988769531250004 2.6222835286458337 Q 2.567952473958334 2.6401871744791667 2.567952473958334 2.6837255859375 Q 2.567952473958334 2.7537125651041667 2.649332682291667 2.7537125651041667 Q 2.7197265625000004 2.7537125651041667 2.738444010416667 2.6865738932291667 Q 2.749430338541667 2.6483251953125 2.749430338541667 2.5860693359375 M 2.974446614583334 2.4493505859375 L 2.9496256510416674 2.4497574869791667 Q 2.9345703125000004 2.4497574869791667 2.9276529947916674 2.4469091796875 Q 2.920735677083334 2.4440608723958337 2.920735677083334 2.4349055989583337 Q 2.920735677083334 2.4257503255208337 2.928670247395834 2.41822265625 Q 2.936604817708334 2.4106949869791667 2.9467773437500004 2.4066259765625 Q 2.9748535156250004 2.3952327473958337 2.9803466796875004 2.3872981770833337 Q 2.9858398437500004 2.3793636067708337 2.9968261718750004 2.3525081380208337 Q 3.0240885416666674 2.2853694661458333 3.0423990885416674 2.2853694661458333 Q 3.0517578125000004 2.2853694661458333 3.053181966145834 2.3055110677083337 Q 3.0546061197916674 2.3256526692708337 3.0548095703125004 2.3362320963541667 Q 3.055013020833334 2.3468115234375 3.0546061197916674 2.3677669270833337 Q 3.0541992187500004 2.3887223307291667 3.0541992187500004 2.3968603515625 L 3.1510416666666674 2.3972672526041667 Q 3.1652832031250004 2.3972672526041667 3.1750488281250004 2.4043880208333337 Q 3.1848144531250004 2.4115087890625 3.1848144531250004 2.4233089192708337 Q 3.1848144531250004 2.4351090494791667 3.175252278645834 2.4416194661458337 Q 3.1656901041666674 2.4481298828125 3.151448567708334 2.4481298828125 L 3.0541992187500004 2.4481298828125 L 3.053792317708334 2.6560563151041667 Q 3.053792317708334 2.7443538411458337 3.0981445312500004 2.7443538411458337 Q 3.1103515625000004 2.7443538411458337 3.134358723958334 2.736826171875 Q 3.1583658854166674 2.7292985026041667 3.1656901041666674 2.7292985026041667 Q 3.1823730468750004 2.7292985026041667 3.1823730468750004 2.7484228515625 Q 3.1823730468750004 2.7634781901041667 3.1431070963541674 2.7785335286458337 Q 3.103841145833334 2.7935888671875 3.0625406901041674 2.7935888671875 Q 3.0212402343750004 2.7935888671875 2.9978434244791674 2.7614436848958337 Q 2.974446614583334 2.7292985026041667 2.974446614583334 2.6768082682291667 L 2.974446614583334 2.4493505859375 M 3.6063639322916674 2.7862646484375 Q 3.507893880208334 2.7862646484375 3.507893880208334 2.7496435546875 Q 3.507893880208334 2.7394710286458337 3.524983723958334 2.7364192708333337 Q 3.542073567708334 2.7333675130208337 3.559163411458334 2.7301123046875 Q 3.576253255208334 2.7268570963541667 3.576253255208334 2.7162776692708337 L 3.576253255208334 2.2658382161458333 L 3.4570312500000004 2.2662451171875 Q 3.437093098958334 2.2662451171875 3.420613606770834 2.3114111328125 Q 3.404134114583334 2.3565771484375 3.3850097656250004 2.3565771484375 Q 3.3532714843750004 2.3565771484375 3.3532714843750004 2.3191422526041667 Q 3.3532714843750004 2.2670589192708333 3.3709716796875004 2.2408138020833333 Q 3.3886718750000004 2.2145686848958333 3.4350585937500004 2.2145686848958333 L 3.6718750000000004 2.2145686848958333 Q 3.800862630208334 2.2145686848958333 3.8321940104166674 2.2153824869791667 Q 3.874104817708334 2.2174169921875 3.8846842447916674 2.2861832682291667 Q 3.887532552083334 2.3032731119791667 3.887532552083334 2.3215836588541667 Q 3.887532552083334 2.3565771484375 3.855794270833334 2.3565771484375 Q 3.835042317708334 2.3565771484375 3.8212076822916674 2.3114111328125 Q 3.8159179687500004 2.2943212890625 3.8061523437500004 2.280283203125 Q 3.7963867187500004 2.2662451171875 3.783772786458334 2.2662451171875 L 3.6645507812500004 2.2658382161458333 L 3.6645507812500004 2.7162776692708337 Q 3.6645507812500004 2.7280777994791667 3.6993408203125004 2.7339778645833337 Q 3.7341308593750004 2.7398779296875 3.7341308593750004 2.7496435546875 Q 3.7341308593750004 2.7638850911458337 3.727010091145834 2.7691748046875 Q 3.7198893229166674 2.7744645182291667 3.7150065104166674 2.7773128255208337 Q 3.7101236979166674 2.7801611328125 3.7009684244791674 2.7817887369791667 Q 3.6918131510416674 2.7834163411458337 3.6853027343750004 2.78443359375 Q 3.678792317708334 2.7854508463541667 3.6669921875000004 2.7858577473958337 Q 3.6551920572916674 2.7862646484375 3.6486816406250004 2.7862646484375 Q 3.627522786458334 2.7862646484375 3.6063639322916674 2.7862646484375 M 3.8645426432291674 2.5162858072916667 Q 3.8456217447916674 2.5042822265625 3.8456217447916674 2.4849544270833337 Q 3.8456217447916674 2.4656266276041667 3.8566080729166674 2.4485367838541667 Q 3.8675944010416674 2.4314469401041667 3.885091145833334 2.4206640625 Q 3.9025878906250004 2.4098811848958337 3.9257812500000004 2.4025569661458337 Q 3.968098958333334 2.3891292317708337 4.016927083333334 2.3891292317708337 Q 4.099121093750001 2.3891292317708337 4.136352539062501 2.425546875 Q 4.173583984375001 2.4619645182291667 4.173583984375001 2.5457861328125 L 4.173177083333334 2.6658219401041667 Q 4.173177083333334 2.7093603515625 4.184163411458334 2.7203466796875 Q 4.187011718750001 2.7231949869791667 4.202067057291667 2.7276708984375 Q 4.243570963541667 2.7406917317708337 4.243570963541667 2.7476090494791667 Q 4.243570963541667 2.7903336588541667 4.156087239583334 2.7903336588541667 Q 4.123128255208334 2.7903336588541667 4.113159179687501 2.7756852213541667 Q 4.103190104166667 2.7610367838541667 4.102376302083334 2.7223811848958337 Q 4.084065755208334 2.7553401692708337 4.046630859375001 2.7756852213541667 Q 4.009195963541667 2.7960302734375 3.9664713541666674 2.7960302734375 Q 3.9237467447916674 2.7960302734375 3.8940429687500004 2.7850439453125 Q 3.864339192708334 2.7740576171875 3.8458251953125004 2.7494401041666667 Q 3.8273111979166674 2.7248225911458337 3.8273111979166674 2.6963395182291667 Q 3.8273111979166674 2.6678564453125 3.833821614583334 2.6505631510416667 Q 3.8403320312500004 2.6332698567708337 3.8500976562500004 2.6214697265625 Q 3.8598632812500004 2.6096695963541667 3.8767496744791674 2.6003108723958337 Q 3.893636067708334 2.5909521484375 3.908284505208334 2.585458984375 Q 3.922932942708334 2.5799658203125 3.946126302083334 2.5754899088541667 Q 3.980305989583334 2.5689794921875 4.003499348958334 2.5663346354166667 Q 4.026692708333334 2.5636897786458337 4.027506510416667 2.5632828776041667 Q 4.029947916666667 2.5628759765625 4.055379231770834 2.5602311197916667 Q 4.080810546875001 2.5575862630208337 4.095458984375001 2.5494482421875 Q 4.095458984375001 2.4721370442708337 4.074707031250001 2.4485367838541667 Q 4.056396484375001 2.4281917317708337 4.014485677083334 2.4281917317708337 Q 3.9725748697916674 2.4281917317708337 3.951619466145834 2.4495540364583337 Q 3.9306640625000004 2.4709163411458337 3.9306640625000004 2.5173030598958337 L 3.9310709635416674 2.5262548828125 Q 3.9139811197916674 2.5282893880208337 3.8987223307291674 2.5282893880208337 Q 3.8834635416666674 2.5282893880208337 3.8645426432291674 2.5162858072916667 M 4.095458984375001 2.5860693359375 Q 4.067789713541667 2.5962418619791667 4.032999674479167 2.600107421875 Q 3.9982096354166674 2.6039729817708337 3.9782714843750004 2.6092626953125 Q 3.958333333333334 2.6145524088541667 3.944905598958334 2.6222835286458337 Q 3.9139811197916674 2.6401871744791667 3.9139811197916674 2.6837255859375 Q 3.9139811197916674 2.7537125651041667 3.9953613281250004 2.7537125651041667 Q 4.065755208333334 2.7537125651041667 4.084472656250001 2.6865738932291667 Q 4.095458984375001 2.6483251953125 4.095458984375001 2.5860693359375 M 4.405110677083334 2.7862646484375 L 4.3701171875 2.7866715494791667 Q 4.316813151041667 2.7866715494791667 4.30419921875 2.7703955078125 Q 4.298502604166667 2.7630712890625 4.298502604166667 2.7526953125 Q 4.298502604166667 2.7423193359375 4.306640625 2.7382503255208337 Q 4.314778645833334 2.7341813151041667 4.324544270833334 2.7337744140625 Q 4.334309895833334 2.7333675130208337 4.342447916666667 2.7274674479166667 Q 4.3505859375 2.7215673828125 4.3505859375 2.7085465494791667 L 4.3505859375 2.2788590494791667 Q 4.3505859375 2.2418310546875 4.3212890625 2.2389827473958333 Q 4.318440755208334 2.2385758463541667 4.31396484375 2.2381689453125 Q 4.309488932291667 2.2377620442708333 4.307454427083334 2.23755859375 Q 4.305419921875 2.2373551432291667 4.3023681640625 2.2367447916666667 Q 4.29931640625 2.2361344401041667 4.297892252604167 2.2353206380208333 Q 4.296468098958334 2.2345068359375 4.295247395833334 2.2332861328125 Q 4.292399088541667 2.2308447265625 4.292399088541667 2.2214860026041667 Q 4.292399088541667 2.2121272786458333 4.305013020833334 2.2019547526041667 Q 4.327799479166667 2.1832373046875 4.366455078125 2.1832373046875 Q 4.407552083333334 2.1832373046875 4.414469401041667 2.1881201171875 Q 4.428304036458334 2.1978857421875 4.428304036458334 2.2137548828125 L 4.428304036458334 2.7085465494791667 Q 4.428304036458334 2.7321468098958337 4.454549153645834 2.7335709635416667 Q 4.480794270833334 2.7349951171875 4.480794270833334 2.7545263671875 Q 4.480794270833334 2.7769059244791667 4.456380208333334 2.7821956380208337 Q 4.437662760416667 2.7862646484375 4.405110677083334 2.7862646484375 M 4.652913411458334 2.7862646484375 L 4.617919921875 2.7866715494791667 Q 4.564615885416667 2.7866715494791667 4.552001953125 2.7703955078125 Q 4.546305338541667 2.7630712890625 4.546305338541667 2.7526953125 Q 4.546305338541667 2.7423193359375 4.554443359375 2.7382503255208337 Q 4.562581380208334 2.7341813151041667 4.572550455729167 2.7337744140625 Q 4.58251953125 2.7333675130208337 4.590657552083334 2.7274674479166667 Q 4.598795572916667 2.7215673828125 4.598795572916667 2.7085465494791667 L 4.598795572916667 2.2788590494791667 Q 4.598795572916667 2.2418310546875 4.569905598958334 2.2389827473958333 Q 4.567057291666667 2.2385758463541667 4.562581380208334 2.2381689453125 Q 4.55810546875 2.2377620442708333 4.556070963541667 2.23755859375 Q 4.554036458333334 2.2373551432291667 4.550984700520834 2.2367447916666667 Q 4.547932942708334 2.2361344401041667 4.5465087890625 2.2353206380208333 Q 4.545084635416667 2.2345068359375 4.54345703125 2.2332861328125 Q 4.540608723958334 2.2312516276041667 4.540608723958334 2.221689453125 Q 4.540608723958334 2.2121272786458333 4.552815755208334 2.2019547526041667 Q 4.576009114583334 2.1832373046875 4.614664713541667 2.1832373046875 Q 4.65576171875 2.1832373046875 4.662679036458334 2.1881201171875 Q 4.676513671875 2.1978857421875 4.676513671875 2.2137548828125 L 4.676513671875 2.5697932942708337 Q 4.691569010416667 2.5584000651041667 4.746500651041667 2.5185237630208337 Q 4.854736328125 2.4403987630208337 4.854736328125 2.4330745442708337 Q 4.854736328125 2.4237158203125 4.823811848958334 2.4139501953125 Q 4.825032552083334 2.3769222005208337 4.892171223958334 2.3769222005208337 L 4.947509765625 2.3769222005208337 Q 5.050048828125 2.3769222005208337 5.050048828125 2.3883154296875 Q 5.050048828125 2.3936051432291667 5.0384521484375 2.4052018229166667 Q 5.02685546875 2.4167985026041667 5.0146484375 2.4237158203125 Q 4.98779296875 2.4237158203125 4.9530029296875 2.4420263671875 Q 4.918212890625 2.4603369140625 4.867350260416667 2.4981787109375 L 4.796956380208334 2.5502620442708337 L 4.924723307291667 2.6853531901041667 Q 4.947916666666667 2.7093603515625 4.966837565104167 2.722177734375 Q 4.985758463541667 2.7349951171875 5.001627604166667 2.7388606770833337 Q 5.017496744791667 2.7427262369791667 5.025431315104167 2.7445572916666667 Q 5.033365885416667 2.7463883463541667 5.037027994791667 2.7472021484375 Q 5.040690104166667 2.7480159505208337 5.04638671875 2.75025390625 Q 5.052083333333334 2.7524918619791667 5.054931640625 2.7549332682291667 Q 5.061848958333334 2.7614436848958337 5.061848958333334 2.7708024088541667 Q 5.061848958333334 2.7903336588541667 4.998779296875 2.7903336588541667 L 4.979248046875 2.7903336588541667 Q 4.940592447916667 2.7903336588541667 4.9261474609375 2.786875 Q 4.911702473958334 2.7834163411458337 4.895426432291667 2.7679541015625 Q 4.834798177083334 2.7105810546875 4.745279947916667 2.5824072265625 L 4.676106770833334 2.6292008463541667 L 4.676106770833334 2.7085465494791667 Q 4.676106770833334 2.7321468098958337 4.702351888020834 2.7335709635416667 Q 4.728597005208334 2.7349951171875 4.728597005208334 2.7545263671875 Q 4.728597005208334 2.7769059244791667 4.704182942708334 2.7821956380208337 Q 4.685465494791667 2.7862646484375 4.652913411458334 2.7862646484375 M 5.282389322916667 2.7492366536458337 Q 5.373942057291667 2.7492366536458337 5.373942057291667 2.6930843098958337 Q 5.373942057291667 2.6507666015625 5.291341145833334 2.6267594401041667 Q 5.275878906250001 2.6222835286458337 5.253906250000001 2.6161800130208337 Q 5.212809244791667 2.6051936848958337 5.198567708333334 2.5994970703125 Q 5.162760416666667 2.5856624348958337 5.137939453125001 2.5592138671875 Q 5.113118489583334 2.5327652994791667 5.113118489583334 2.4965511067708337 Q 5.113118489583334 2.4497574869791667 5.157674153645834 2.4188330078125 Q 5.202229817708334 2.3879085286458337 5.265299479166667 2.3879085286458337 Q 5.326741536458334 2.3879085286458337 5.380452473958334 2.4102880859375 Q 5.406901041666667 2.4212744140625 5.423380533854167 2.4408056640625 Q 5.439860026041667 2.4603369140625 5.439860026041667 2.4814957682291667 Q 5.439860026041667 2.5026546223958337 5.422973632812501 2.5152685546875 Q 5.406087239583334 2.5278824869791667 5.387980143229167 2.5278824869791667 Q 5.369873046875001 2.5278824869791667 5.363972981770834 2.524423828125 Q 5.358072916666667 2.5209651692708337 5.358072916666667 2.5083512369791667 Q 5.358072916666667 2.4298193359375 5.274658203125001 2.4298193359375 Q 5.240071614583334 2.4298193359375 5.214436848958334 2.445078125 Q 5.188802083333334 2.4603369140625 5.188802083333334 2.4847509765625 Q 5.188802083333334 2.5229996744791667 5.268554687500001 2.5453792317708337 Q 5.281168619791667 2.5486344401041667 5.299072265625001 2.5533138020833337 Q 5.316975911458334 2.5579931640625 5.332031250000001 2.5626725260416667 Q 5.347086588541667 2.5673518880208337 5.363566080729167 2.5736588541666667 Q 5.380045572916667 2.5799658203125 5.398356119791667 2.5901383463541667 Q 5.416666666666667 2.6003108723958337 5.428059895833334 2.6121110026041667 Q 5.454508463541667 2.6389664713541667 5.454508463541667 2.67701171875 Q 5.454508463541667 2.7150569661458337 5.428873697916667 2.7427262369791667 Q 5.378011067708334 2.7968440755208337 5.282389322916667 2.7968440755208337 Q 5.220133463541667 2.7968440755208337 5.167643229166667 2.7764990234375 Q 5.140787760416667 2.7659195963541667 5.124511718750001 2.7472021484375 Q 5.108235677083334 2.7284847005208337 5.108235677083334 2.7073258463541667 Q 5.108235677083334 2.6861669921875 5.121663411458334 2.6745703125 Q 5.135091145833334 2.6629736328125 5.152180989583334 2.6629736328125 Q 5.169270833333334 2.6629736328125 5.181274414062501 2.6735530598958337 Q 5.193277994791667 2.6841324869791667 5.193277994791667 2.6997981770833337 Q 5.193277994791667 2.7154638671875 5.190429687500001 2.7333675130208337 Q 5.233561197916667 2.7492366536458337 5.282389322916667 2.7492366536458337 M 5.552775065104168 2.7732438151041667 Q 5.535481770833334 2.7602229817708337 5.535481770833334 2.7396744791666667 Q 5.535481770833334 2.7191259765625 5.554199218750001 2.7052913411458337 Q 5.572916666666668 2.6914567057291667 5.592041015625001 2.6914567057291667 Q 5.611165364583334 2.6914567057291667 5.630493164062501 2.7040706380208337 Q 5.649820963541668 2.7166845703125 5.649820963541668 2.7341813151041667 Q 5.649820963541668 2.7708024088541667 5.612792968750001 2.7830094401041667 Q 5.603434244791668 2.7862646484375 5.586751302083334 2.7862646484375 Q 5.570068359375001 2.7862646484375 5.552775065104168 2.7732438151041667" fill="#3682ae" fill-rule="nonzero"></path></g></g><defs><clipPath id="SvgjsClipPath34167"><path d=" M -4.125324337496639 -1.529126692406197 h 3.7253243374966387 v 5.844518033249894 h -3.7253243374966387 Z"></path></clipPath><clipPath id="SvgjsClipPath341650be31aab-1a56-42da-aaaa-a87f83a932bb"><path d=" M -4.125324337496639 -1.529126692406197 L -0.3999999999999999 -1.529126692406197 L -0.3999999999999999 4.315391340843697 L -4.125324337496639 4.315391340843697 Z"></path></clipPath></defs></svg>